<svg width="55" height="55" viewBox="0 0 55 55" fill="none" xmlns="http://www.w3.org/2000/svg">
<path d="M29.4924 15.9287C31.106 10.3587 27.8987 4.5353 22.3287 2.9217V2.9217C16.7588 1.30809 10.9353 4.51536 9.32173 10.0853V10.0853C7.70813 15.6553 10.9154 21.4787 16.4854 23.0923L25.92 25.8255C26.2794 25.9296 26.6551 25.7227 26.7592 25.3634L29.4924 15.9287Z" fill="#2E62C1"/>
<path d="M31.4133 16.4852C33.0269 10.9153 38.8503 7.70799 44.4203 9.32159V9.32159C49.9903 10.9352 53.1975 16.7586 51.5839 22.3286V22.3286C49.9703 27.8986 44.1469 31.1058 38.5769 29.4922L29.1423 26.759C28.7829 26.6549 28.576 26.2792 28.6801 25.9199L31.4133 16.4852Z" fill="#63D2DD"/>
<path d="M25.0135 38.5769C23.3999 44.1469 26.6072 49.9703 32.1771 51.5839V51.5839C37.7471 53.1975 43.5705 49.9903 45.1841 44.4203V44.4203C46.7977 38.8503 43.5905 33.0269 38.0205 31.4133L28.5858 28.6801C28.2265 28.576 27.8508 28.7829 27.7467 29.1423L25.0135 38.5769Z" fill="#2E62C1"/>
<path d="M23.0926 38.0204C21.479 43.5904 15.6555 46.7976 10.0856 45.184V45.184C4.51561 43.5704 1.30834 37.747 2.92194 32.177V32.177C4.53554 26.607 10.359 23.3998 15.9289 25.0134L25.3636 27.7466C25.723 27.8507 25.9299 28.2264 25.8258 28.5857L23.0926 38.0204Z" fill="#63D2DD"/>
</svg>
